<?xml version="1.0" encoding="utf-8"?>
<svg version="1.1" xmlns:xlink="http://www.w3.org/1999/xlink" width="32px" height="25px" xmlns="http://www.w3.org/2000/svg">
  <g transform="matrix(1 0 0 1 -383 -949 )">
    <path d="M 14.923766816143498 18.75  L 15.928251121076233 18.75  L 18.00896860986547 16.69034090909091  L 15.282511210762332 13.99147727272727  L 13.201793721973095 16.051136363636363  L 13.201793721973095 17.045454545454547  L 14.923766816143498 17.045454545454547  L 14.923766816143498 18.75  Z M 23.80269058295964 6.551846590909091  C 24.00597907324365 6.350615530303028  24.011958146487295 6.155303030303028  23.820627802690584 5.965909090909091  C 23.629297458893873 5.776515151515149  23.431988041853515 5.78243371212121  23.228699551569505 5.983664772727273  L 16.95067264573991 12.198153409090908  C 16.747384155455904 12.399384469696969  16.741405082212257 12.594696969696967  16.932735426008968 12.784090909090908  C 17.124065769805682 12.973484848484848  17.32137518684604 12.967566287878785  17.524663677130047 12.76633522727273  L 23.80269058295964 6.551846590909091  Z M 24.896860986547086 15.997869318181818  C 25.136023916292977 16.092566287878785  25.255605381165918 16.264204545454547  25.255605381165918 16.51278409090909  L 25.255605381165918 19.886363636363637  C 25.255605381165918 21.294981060606062  24.75037369207773 22.499408143939394  23.739910313901344 23.499644886363637  C 22.729446935724965 24.49988162878788  21.51270553064275 25  20.08968609865471 25  L 5.165919282511211 25  C 3.742899850523169 25  2.5261584454409567 24.49988162878788  1.515695067264574 23.499644886363637  C 0.5052316890881913 22.499408143939394  0 21.294981060606062  0 19.886363636363637  L 0 5.113636363636365  C 0 3.7050189393939363  0.5052316890881913 2.500591856060605  1.515695067264574 1.5003551136363646  C 2.5261584454409567 0.5001183712121188  3.742899850523169 0  5.165919282511211 0  L 20.08968609865471 0  C 20.84304932735426 0  21.542600896860986 0.1479640151515138  22.18834080717489 0.4438920454545442  C 22.367713004484305 0.5267518939393923  22.475336322869953 0.6628787878787873  22.51121076233184 0.8522727272727265  C 22.54708520179372 1.0535037878787872  22.493273542600896 1.225142045454544  22.349775784753362 1.3671875  L 21.47085201793722 2.2372159090909087  C 21.303437967115098 2.402935606060605  21.112107623318387 2.4502840909090913  20.896860986547086 2.3792613636363646  C 20.621823617339313 2.3082386363636354  20.352765321375188 2.2727272727272734  20.08968609865471 2.2727272727272734  L 5.165919282511211 2.2727272727272734  C 4.376681614349776 2.2727272727272734  3.701046337817639 2.550899621212119  3.1390134529147984 3.1072443181818175  C 2.5769805680119586 3.663589015151514  2.295964125560538 4.332386363636365  2.295964125560538 5.113636363636365  L 2.295964125560538 19.886363636363637  C 2.295964125560538 20.667613636363637  2.5769805680119586 21.33641098484848  3.1390134529147984 21.892755681818183  C 3.701046337817639 22.44910037878788  4.376681614349776 22.727272727272727  5.165919282511211 22.727272727272727  L 20.08968609865471 22.727272727272727  C 20.878923766816143 22.727272727272727  21.55455904334828 22.44910037878788  22.116591928251122 21.892755681818183  C 22.678624813153963 21.33641098484848  22.95964125560538 20.667613636363637  22.95964125560538 19.886363636363637  L 22.95964125560538 17.64914772727273  C 22.95964125560538 17.49526515151515  23.013452914798208 17.365056818181817  23.121076233183857 17.25852272727273  L 24.269058295964125 16.12215909090909  C 24.44843049327354 15.94460227272727  24.6576980568012 15.903172348484848  24.896860986547086 15.997869318181818  Z M 11.47982062780269 15.340909090909092  L 23.533632286995516 3.4090909090909087  L 28.699551569506728 8.522727272727273  L 16.6457399103139 20.454545454545453  L 11.47982062780269 20.454545454545453  L 11.47982062780269 15.340909090909092  Z M 32 4.545454545454544  C 32 5.018939393939393  31.83258594917788 5.421401515151514  31.49775784753363 5.752840909090909  L 29.847533632286996 7.386363636363635  L 24.681614349775785 2.2727272727272734  L 26.331838565022423 0.6392045454545442  C 26.666666666666668 0.30776515151514916  27.07324364723468 0.1420454545454558  27.55156950672646 0.1420454545454558  C 28.029895366218238 0.1420454545454558  28.43647234678625 0.30776515151514916  28.771300448430495 0.6392045454545442  L 31.49775784753363 3.3380681818181825  C 31.83258594917788 3.6695075757575717  32 4.071969696969696  32 4.545454545454544  Z " fill-rule="nonzero" fill="#006591" stroke="none" transform="matrix(1 0 0 1 383 949 )" />
  </g>
</svg>