<?xml version="1.0" encoding="utf-8"?>
<svg version="1.1" xmlns:xlink="http://www.w3.org/1999/xlink" width="27px" height="26px" xmlns="http://www.w3.org/2000/svg">
  <defs>
    <mask fill="white" id="clip51">
      <path d="M 27 7.526315789473688  C 27 3.311578947368421  23.733000000000004 0  19.575 0  C 17.22599999999999 0  14.97149999999999 1.1084210526315772  13.5 2.8599999999999985  C 12.028500000000008 1.1084210526315772  9.774 0  7.425000000000001 0  C 3.266999999999996 0  0 3.311578947368421  0 7.526315789473688  C 0 12.698947368421047  4.589999999999995 16.913684210526306  11.54249999999999 23.317894736842113  L 13.5 25.11052631578947  L 15.457500000000008 23.304210526315796  C 22.410000000000004 16.913684210526306  27 12.698947368421047  27 7.526315789473688  Z " fill-rule="evenodd" />
    </mask>
  </defs>
  <g transform="matrix(1 0 0 1 -960 -1029 )">
    <path d="M 27 7.526315789473688  C 27 3.311578947368421  23.733000000000004 0  19.575 0  C 17.22599999999999 0  14.97149999999999 1.1084210526315772  13.5 2.8599999999999985  C 12.028500000000008 1.1084210526315772  9.774 0  7.425000000000001 0  C 3.266999999999996 0  0 3.311578947368421  0 7.526315789473688  C 0 12.698947368421047  4.589999999999995 16.913684210526306  11.54249999999999 23.317894736842113  L 13.5 25.11052631578947  L 15.457500000000008 23.304210526315796  C 22.410000000000004 16.913684210526306  27 12.698947368421047  27 7.526315789473688  Z " fill-rule="nonzero" fill="#ffffff" stroke="none" transform="matrix(1 0 0 1 960 1029 )" />
    <path d="M 27 7.526315789473688  C 27 3.311578947368421  23.733000000000004 0  19.575 0  C 17.22599999999999 0  14.97149999999999 1.1084210526315772  13.5 2.8599999999999985  C 12.028500000000008 1.1084210526315772  9.774 0  7.425000000000001 0  C 3.266999999999996 0  0 3.311578947368421  0 7.526315789473688  C 0 12.698947368421047  4.589999999999995 16.913684210526306  11.54249999999999 23.317894736842113  L 13.5 25.11052631578947  L 15.457500000000008 23.304210526315796  C 22.410000000000004 16.913684210526306  27 12.698947368421047  27 7.526315789473688  Z " stroke-width="2" stroke="#000000" fill="none" transform="matrix(1 0 0 1 960 1029 )" mask="url(#clip51)" />
  </g>
</svg>