<?xml version="1.0" encoding="utf-8"?>
<svg version="1.1" xmlns:xlink="http://www.w3.org/1999/xlink" width="28px" height="26px" xmlns="http://www.w3.org/2000/svg">
  <defs>
    <mask fill="white" id="clip111">
      <path d="M 28 7.526315789473642  C 28 3.311578947368389  24.611999999999966 0  20.299999999999955 0  C 17.864000000000033 0  15.525999999999954 1.10842105263157  14 2.8600000000000136  C 12.474000000000046 1.10842105263157  10.135999999999967 0  7.7000000000000455 0  C 3.3880000000000337 0  0 3.311578947368389  0 7.526315789473642  C 0 12.698947368421045  4.759999999999991 16.9136842105263  11.970000000000027 23.317894736842163  L 14 25.110526315789457  L 16.029999999999973 23.304210526315842  C 17.135754258080965 22.324134009663567  18.18388326970785 21.395233168379946  19.166054405856926 20.506204180818713  C 24.58806741811395 15.59837644956315  28 11.905652029460498  28 7.526315789473642  Z " fill-rule="evenodd" />
    </mask>
  </defs>
  <g transform="matrix(1 0 0 1 -979 -704 )">
    <path d="M 28 7.526315789473642  C 28 3.311578947368389  24.611999999999966 0  20.299999999999955 0  C 17.864000000000033 0  15.525999999999954 1.10842105263157  14 2.8600000000000136  C 12.474000000000046 1.10842105263157  10.135999999999967 0  7.7000000000000455 0  C 3.3880000000000337 0  0 3.311578947368389  0 7.526315789473642  C 0 12.698947368421045  4.759999999999991 16.9136842105263  11.970000000000027 23.317894736842163  L 14 25.110526315789457  L 16.029999999999973 23.304210526315842  C 17.135754258080965 22.324134009663567  18.18388326970785 21.395233168379946  19.166054405856926 20.506204180818713  C 24.58806741811395 15.59837644956315  28 11.905652029460498  28 7.526315789473642  Z " fill-rule="nonzero" fill="#d15353" stroke="none" transform="matrix(1 0 0 1 979 704 )" />
    <path d="M 28 7.526315789473642  C 28 3.311578947368389  24.611999999999966 0  20.299999999999955 0  C 17.864000000000033 0  15.525999999999954 1.10842105263157  14 2.8600000000000136  C 12.474000000000046 1.10842105263157  10.135999999999967 0  7.7000000000000455 0  C 3.3880000000000337 0  0 3.311578947368389  0 7.526315789473642  C 0 12.698947368421045  4.759999999999991 16.9136842105263  11.970000000000027 23.317894736842163  L 14 25.110526315789457  L 16.029999999999973 23.304210526315842  C 17.135754258080965 22.324134009663567  18.18388326970785 21.395233168379946  19.166054405856926 20.506204180818713  C 24.58806741811395 15.59837644956315  28 11.905652029460498  28 7.526315789473642  Z " stroke-width="2" stroke="#333333" fill="none" transform="matrix(1 0 0 1 979 704 )" mask="url(#clip111)" />
  </g>
</svg>