<?xml version="1.0" encoding="utf-8"?>
<svg version="1.1" xmlns:xlink="http://www.w3.org/1999/xlink" width="33px" height="31px" xmlns="http://www.w3.org/2000/svg">
  <g transform="matrix(1 0 0 1 -418 -461 )">
    <path d="M 20.23828125 19.01171875  C 21.976862980769234 17.378505608974358  22.846153846153847 15.413060897435896  22.846153846153847 13.115384615384617  C 22.846153846153847 10.81770833333333  21.976862980769234 8.85226362179487  20.23828125 7.219050480769231  C 18.49969951923077 5.585837339743588  16.407451923076923 4.769230769230769  13.961538461538462 4.769230769230769  C 11.515625000000002 4.769230769230769  9.423377403846155 5.585837339743588  7.6847956730769225 7.219050480769231  C 5.9462139423076925 8.85226362179487  5.0769230769230775 10.81770833333333  5.0769230769230775 13.115384615384617  C 5.0769230769230775 15.413060897435896  5.9462139423076925 17.378505608974358  7.6847956730769225 19.01171875  C 9.423377403846155 20.644931891025635  11.515625000000002 21.46153846153846  13.961538461538462 21.46153846153846  C 16.407451923076923 21.46153846153846  18.49969951923077 20.644931891025635  20.23828125 19.01171875  Z M 32.26622596153846 26.938701923076923  C 32.75540865384615 27.398237179487182  33 27.957131410256412  33 28.615384615384617  C 33 29.261217948717952  32.74879807692308 29.820112179487182  32.24639423076923 30.29206730769231  C 31.743990384615387 30.764022435897434  31.149038461538463 31  30.461538461538463 31  C 29.747596153846153 31  29.15264423076923 30.764022435897434  28.67668269230769 30.29206730769231  L 21.874399038461537 23.920673076923077  C 19.5078125 25.460737179487182  16.87019230769231 26.23076923076923  13.961538461538462 26.23076923076923  C 12.070913461538463 26.23076923076923  10.262920673076923 25.88611778846154  8.537560096153845 25.196814903846157  C 6.812199519230769 24.50751201923077  5.324819711538462 23.576021634615383  4.075420673076923 22.40234375  C 2.8260216346153846 21.228665865384617  1.8344350961538465 19.83143028846154  1.1006610576923077 18.21063701923077  C 0.3668870192307692 16.58984375  0 14.89142628205128  0 13.115384615384617  C 0 11.339342948717945  0.3668870192307692 9.64092548076923  1.1006610576923077 8.020132211538462  C 1.8344350961538465 6.399338942307692  2.8260216346153846 5.002103365384617  4.075420673076923 3.8284254807692304  C 5.324819711538462 2.6547475961538476  6.812199519230769 1.723257211538461  8.537560096153845 1.033954326923078  C 10.262920673076923 0.3446514423076915  12.070913461538463 0  13.961538461538462 0  C 15.852163461538462 0  17.66015625 0.3446514423076915  19.385516826923077 1.033954326923078  C 21.110877403846153 1.723257211538461  22.598257211538463 2.6547475961538476  23.84765625 3.8284254807692304  C 25.097055288461537 5.002103365384617  26.088641826923077 6.399338942307692  26.822415865384613 8.020132211538462  C 27.556189903846153 9.64092548076923  27.923076923076923 11.339342948717945  27.923076923076923 13.115384615384617  C 27.923076923076923 15.847756410256409  27.103365384615387 18.325520833333332  25.46394230769231 20.548677884615383  L 32.26622596153846 26.938701923076923  Z " fill-rule="nonzero" fill="#aaaaaa" stroke="none" transform="matrix(1 0 0 1 418 461 )" />
  </g>
</svg>