<?xml version="1.0" encoding="utf-8"?>
<svg version="1.1" xmlns:xlink="http://www.w3.org/1999/xlink" width="28px" height="26px" xmlns="http://www.w3.org/2000/svg">
  <defs>
    <mask fill="white" id="clip48">
      <path d="M 28 7.526315789473688  C 28 3.311578947368421  24.612000000000002 0  20.3 0  C 17.863999999999987 0  15.525999999999991 1.1084210526315772  14 2.8599999999999985  C 12.474000000000007 1.1084210526315772  10.136 0  7.700000000000001 0  C 3.3879999999999955 0  0 3.311578947368421  0 7.526315789473688  C 0 12.698947368421047  4.7599999999999945 16.913684210526306  11.969999999999988 23.317894736842113  L 14 25.11052631578947  L 16.03000000000001 23.304210526315796  C 23.240000000000006 16.913684210526306  28 12.698947368421047  28 7.526315789473688  Z " fill-rule="evenodd" />
    </mask>
  </defs>
  <g transform="matrix(1 0 0 1 -1067 -282 )">
    <path d="M 28 7.526315789473688  C 28 3.311578947368421  24.612000000000002 0  20.3 0  C 17.863999999999987 0  15.525999999999991 1.1084210526315772  14 2.8599999999999985  C 12.474000000000007 1.1084210526315772  10.136 0  7.700000000000001 0  C 3.3879999999999955 0  0 3.311578947368421  0 7.526315789473688  C 0 12.698947368421047  4.7599999999999945 16.913684210526306  11.969999999999988 23.317894736842113  L 14 25.11052631578947  L 16.03000000000001 23.304210526315796  C 23.240000000000006 16.913684210526306  28 12.698947368421047  28 7.526315789473688  Z " fill-rule="nonzero" fill="#d15353" stroke="none" transform="matrix(1 0 0 1 1067 282 )" />
    <path d="M 28 7.526315789473688  C 28 3.311578947368421  24.612000000000002 0  20.3 0  C 17.863999999999987 0  15.525999999999991 1.1084210526315772  14 2.8599999999999985  C 12.474000000000007 1.1084210526315772  10.136 0  7.700000000000001 0  C 3.3879999999999955 0  0 3.311578947368421  0 7.526315789473688  C 0 12.698947368421047  4.7599999999999945 16.913684210526306  11.969999999999988 23.317894736842113  L 14 25.11052631578947  L 16.03000000000001 23.304210526315796  C 23.240000000000006 16.913684210526306  28 12.698947368421047  28 7.526315789473688  Z " stroke-width="2" stroke="#333333" fill="none" transform="matrix(1 0 0 1 1067 282 )" mask="url(#clip48)" />
  </g>
</svg>